<?xml version="1.0" encoding="UTF-8"?>
<svg width="72px" height="72px" viewBox="0 0 72 72" version="1.1" xmlns="http://www.w3.org/2000/svg" xmlns:xlink="http://www.w3.org/1999/xlink">
    <title>Iconist - Medical &amp; Health/Two-Tone/health app 1</title>
    <g id="Iconist---Medical-&amp;-Health/Two-Tone/health-app-1" stroke="none" stroke-width="1" fill="none" fill-rule="evenodd">
        <g id="Group" transform="translate(0.972973, -0.000000)">
            <g transform="translate(0.000000, 0.875676)">
                <rect id="Rectangle" x="0" y="0" width="70.0540542" height="70.0540542"></rect>
                <g transform="translate(18.486487, 6.908108)" fill-rule="nonzero">
                    <path d="M32.9837838,41.6432433 C32.9837838,41.6432433 32.9837838,41.6432433 32.9837838,41.6432433 L32.8864865,10.2162162 C32.8864865,10.2162162 32.8864865,10.2162162 32.8864865,10.2162162 C32.8864865,10.2162162 32.8864865,10.2162162 32.8864865,10.2162162 L32.8864865,7.4918919 C32.8864865,3.8918919 29.8702703,0.875675677 26.0756757,0.875675677 C26.0756757,0.875675677 26.0756757,0.875675677 26.0756757,0.875675677 L6.81081082,0.972972974 C5.05945947,0.972972974 3.30810811,1.65405406 2.04324325,2.91891892 C0.778378379,4.18378379 0.0972972974,5.83783785 0.0972972974,7.5891892 L0.291891892,41.8378379 C0.291891892,41.8378379 0.291891892,41.8378379 0.291891892,41.8378379 L0.291891892,41.8378379 L0.291891892,41.8378379 L0.291891892,41.8378379 L0.291891892,48.9405406 C0.291891892,52.5405406 3.30810811,55.5567568 7.10270271,55.5567568 C7.10270271,55.5567568 7.10270271,55.5567568 7.10270271,55.5567568 L26.2702703,55.4594595 C29.9675676,55.4594595 32.9837838,52.4432433 32.9837838,48.745946 L32.9837838,41.6432433 Z" id="Path" fill="#CADAC2"></path>
                    <path d="M22.6702703,27.8270271 C20.8216217,29.772973 18.7783784,31.5243244 16.6378379,33.1783784 C14.4,31.718919 12.3567568,29.9675676 10.5081081,28.118919 C9.04864866,26.6594595 8.85405407,24.3243244 10.2162162,22.6702703 L10.5081081,22.2810811 C11.9675676,20.9189189 14.3027027,20.9189189 15.8594595,22.2810811 C16.2486487,22.6702703 16.8324325,22.6702703 17.2216216,22.2810811 L17.3189189,22.1837838 C18.7783784,20.8216217 21.2108108,20.8216217 22.6702703,22.1837838 C23.4486487,22.9621622 23.9351352,23.9351352 23.9351352,25.0054054 C23.8378379,25.9783784 23.4486487,27.0486487 22.6702703,27.8270271 Z" id="Path" fill="#CADAC2"></path>
                    <path d="M26.0756757,0.875675677 L26.3168052,0.879748513 C29.9972545,1.00428958 32.8864865,3.96848764 32.8864865,7.4918919 L32.8864865,7.4918919 L32.8864865,10.2162162 L32.8864865,10.2162162 L32.9837838,41.6432433 L32.9837838,41.6432433 L32.9837838,48.745946 C32.9837838,52.4432433 29.9675676,55.4594595 26.2702703,55.4594595 L26.2702703,55.4594595 L7.10270271,55.5567568 L7.10270271,55.5567568 L6.8615732,55.552684 C3.18112391,55.4281429 0.291891892,52.4639449 0.291891892,48.9405406 L0.291891892,48.9405406 L0.291891892,41.8378379 L0.0972972974,7.5891892 C0.0972972974,5.83783785 0.778378379,4.18378379 2.04324325,2.91891892 C3.30810811,1.65405406 5.05945947,0.972972974 6.81081082,0.972972974 L6.81081082,0.972972974 L26.0756757,0.875675677 L26.0756757,0.875675677 Z M31.0378379,42.6162163 L2.23783784,42.7135136 L2.23783784,48.8432433 C2.33513514,51.4702703 4.47567568,53.5135136 7.10270271,53.5135136 L7.10270271,53.5135136 L26.2702703,53.5135136 C28.8972973,53.4162163 31.0378379,51.372973 31.0378379,48.745946 L31.0378379,48.745946 L31.0378379,42.6162163 Z M30.8432433,11.2864865 L2.04324325,11.3837838 L2.23783784,40.8648649 L30.9405406,40.7675676 L30.8432433,11.2864865 Z M25.9783784,2.91891892 L6.81081082,3.01621622 C5.54594595,3.01621622 4.28108109,3.50270271 3.40540541,4.37837838 C2.52972973,5.25405406 2.04324325,6.42162163 2.04324325,7.6864865 L2.04324325,7.6864865 L2.04324325,9.43783785 L30.8432433,9.34054055 L30.8432433,7.5891892 C30.745946,4.96216217 28.6054054,2.91891892 25.9783784,2.91891892 L25.9783784,2.91891892 Z" id="Shape" fill="#19494B"></path>
                    <path d="M16.6378379,44.2702703 C17.5135135,44.2702703 18.3891892,44.6594595 19.0702703,45.2432433 C19.6540541,45.9243244 20.0432433,46.8000001 20.0432433,47.6756757 C20.0432433,48.6486487 19.7513514,49.5243244 19.0702703,50.1081082 C18.3891892,50.691892 17.5135135,51.0810812 16.6378379,51.0810812 L16.6378379,51.0810812 L16.4167157,51.0758554 C15.5456901,51.0338718 14.8340957,50.7367984 14.2054054,50.1081082 C13.6216216,49.4270271 13.2324325,48.5513514 13.2324325,47.6756757 C13.2324325,46.7027028 13.5243243,45.9243244 14.2054054,45.2432433 C14.8864865,44.6594595 15.7621622,44.2702703 16.6378379,44.2702703 Z M16.6378379,46.2162163 L16.4920819,46.2209671 C16.1528716,46.2435811 15.822973,46.3500001 15.5675676,46.6054055 C15.372973,46.8972974 15.1783784,47.2864866 15.1783784,47.6756757 C15.1783784,48.0648649 15.2756757,48.4540541 15.5675676,48.745946 C15.8594595,48.9405406 16.2486487,49.1351352 16.6378379,49.1351352 C17.0270271,49.1351352 17.4162162,49.0378379 17.7081081,48.745946 C17.9027027,48.4540541 18.0972973,48.0648649 18.0972973,47.6756757 C18.0972973,47.2864866 18,46.8972974 17.7081081,46.6054055 C17.4162162,46.4108109 17.0270271,46.2162163 16.6378379,46.2162163 L16.6378379,46.2162163 Z M16.4432433,20.2378379 C18.6810811,18.6810811 21.7945946,18.7783784 23.8378379,20.7243244 C25.1027027,21.8918919 25.6864865,23.3513514 25.8810811,24.8108108 C25.8810811,26.3675676 25.2972973,27.9243244 24.2270271,29.0918919 C22.1837838,31.2324325 19.8486487,33.2756757 17.3189189,35.0270271 C17.1243243,35.1243244 16.9297298,35.2216217 16.7351352,35.2216217 C16.5405406,35.2216217 16.345946,35.1243244 16.1513514,35.0270271 L16.1513514,35.0270271 L15.7621622,34.8324325 C13.427027,33.1783784 11.1891892,31.4270271 9.14594596,29.3837838 C6.90810812,27.2432433 6.71351352,23.8378379 8.65945947,21.4054054 L8.65945947,21.4054054 L8.95135136,21.0162162 C8.95135136,21.0162162 9.04864866,20.9189189 9.04864866,20.9189189 C11.0918919,18.972973 14.2054054,18.7783784 16.4432433,20.2378379 Z M22.6702703,22.1837838 C21.2108108,20.8216217 18.7783784,20.8216217 17.3189189,22.1837838 L17.3189189,22.1837838 L17.2216216,22.2810811 C16.8324325,22.6702703 16.2486487,22.6702703 15.8594595,22.2810811 C14.3027027,20.9189189 11.9675676,20.9189189 10.5081081,22.2810811 L10.5081081,22.2810811 L10.2162162,22.6702703 C8.85405407,24.3243244 9.04864866,26.6594595 10.5081081,28.118919 C12.3567568,29.9675676 14.4,31.718919 16.6378379,33.1783784 C18.7783784,31.5243244 20.8216217,29.772973 22.6702703,27.8270271 C23.4486487,27.0486487 23.8378379,25.9783784 23.9351352,25.0054054 C23.9351352,23.9351352 23.4486487,22.9621622 22.6702703,22.1837838 Z M19.3621622,5.15675676 L19.4842093,5.16264282 C19.9995588,5.21334805 20.3351352,5.5876448 20.3351352,6.12972974 C20.3351352,6.61621623 19.945946,7.10270271 19.3621622,7.10270271 L19.3621622,7.10270271 L13.6216216,7.10270271 L13.6216216,7.10270271 L13.4995745,7.09681665 C12.9842251,7.04611143 12.6486487,6.67181468 12.6486487,6.12972974 C12.6486487,5.64324325 13.0378379,5.15675676 13.6216216,5.15675676 L13.6216216,5.15675676 L19.3621622,5.15675676 L19.3621622,5.15675676 Z" id="Shape" fill="#19494B"></path>
                </g>
            </g>
        </g>
    </g>
</svg>